<?xml version="1.0" encoding="UTF-8"?>
<svg id="Layer_1" data-name="Layer 1" xmlns="http://www.w3.org/2000/svg" version="1.1" viewBox="0 0 100 100">
  <defs>
    <style>
      .cls-1 {
        fill: #1c75bc;
        stroke-width: 0px;
      }
    </style>
  </defs>
  <path class="cls-1" d="M20.18,86.64c0,.63.45.82,1.09.82h10.34c16.41,0,25.92-50.2,39.32-67.61,2.61-3.4,4.67-5.43,7.21-5.85.22-.04.68-.19.68-.82,0-.63-.58-.82-1.22-.82h-10.9c-16.54,0-24.15,50.13-38.76,67.61-2.71,3.24-3.58,4.61-7.07,5.85-.22.08-.68.19-.68.82Z"/>
  <path class="cls-1" d="M100,12.36h-10.46c-16.54,0-24.13,50.13-38.74,67.61-2.71,3.24-3.56,4.6-7.07,5.85-.22.08-.82.19-.82.82s.58.82,1.22.82h10.34c18.85,0,28.52-66.3,45.53-72.95v-2.15Z"/>
  <path class="cls-1" d="M54.74,12.36h-10.88C25.51,12.36,18.15,74.03,0,84.44v3.02h8.76c16.41,0,25.78-50.21,39.18-67.61,2.61-3.4,4.67-5.43,7.21-5.85.22-.04.68-.19.68-.82s-.45-.82-1.09-.82Z"/>
</svg>