<svg version="1.1" id="Layer_1" xmlns="http://www.w3.org/2000/svg" xmlns:xlink="http://www.w3.org/1999/xlink" x="0px" y="0px"
	 viewBox="0 0 1000 552" style="enable-background:new 0 0 1000 552;" xml:space="preserve">
<style type="text/css">
	.st0{fill:#1C75BC;}
</style>
<path class="st0" d="M467,0c0,0-80,0-80,0c-4.7,0-8,1.4-8,6s3.4,5.7,5,6c18.7,3.1,33.8,18,53,43c98.5,127.9,167.4,497,288,497h89
	c4.7,0,9-1.4,9-6s-3.4-5.8-5-6C663,517.7,611.1,0,467,0z"/>
<path class="st0" d="M775,444l225-427h-87L734,356C747.1,387.5,760.6,418,775,444z"/>
<path class="st0" d="M709,291L853,17h-87l-94,179C684.3,227,696.7,258.9,709,291z"/>
<path class="st0" d="M645,132l60-115h-86l-18,34C616.6,72.9,630.9,100.8,645,132z"/>
<path class="st0" d="M636,540c-25.7-9.1-32.1-19.2-52-43C476.6,368.5,420.7,0,299.1,0l0,0c0,0,0,0,0,0L219,0c-4.7,0-9,1.4-9,6
	s3.4,5.7,5,6c18.7,3.1,33.8,18,53,43c98.5,128,168.4,497,289,497h76c4.7,0,8-1.4,8-6S637.6,540.6,636,540z"/>
<path class="st0" d="M468,540c-25.8-9.2-32.1-19.2-52-43C308.6,368.5,252.8,0,131.2,0l0,0c0,0,0,0,0,0L42.4,0C37.6,0,34,1.4,34,6
	s3.3,5.8,5,6c134.8,12.7,205.9,540,350,540h76c4.7,0,9-1.4,9-6S469.6,540.6,468,540z"/>
<path class="st0" d="M145,264L0,539h87l96-182C170.3,326.6,157.5,295.5,145,264z"/>
<path class="st0" d="M211,420l-64,119h87l21-40C239.3,477.2,225.5,450.4,211,420z"/>
</svg>
